<?xml version="1.0" encoding="UTF-8"?>
<svg id="Layer_2" data-name="Layer 2" xmlns="http://www.w3.org/2000/svg" viewBox="0 0 279.64 577.58">
  <defs>
    <style>
      .cls-1 {
        fill: #fff;
      }
    </style>
  </defs>
  <g id="Layer_1-2" data-name="Layer 1">
    <g>
      <g>
        <rect x="122.39" y="473.65" width="156.38" height="103.93"/>
        <path class="cls-1" d="M212.91,503.81h-24.67c-.21,0-.38.07-.53.22-.15.15-.22.32-.22.53v6.04c0,.21.07.38.22.53.15.15.32.22.53.22h7.48c.21,0,.31.1.31.31v35.02c0,.21.07.38.22.53.15.15.32.22.53.22h7.29c.21,0,.38-.07.53-.22.15-.14.22-.32.22-.53v-35.02c0-.21.1-.31.31-.31h7.79c.21,0,.38-.07.53-.22.14-.14.22-.32.22-.53v-6.04c0-.21-.07-.38-.22-.53-.15-.15-.32-.22-.53-.22"/>
        <path class="cls-1" d="M173.78,525.05c-.13-.13-.1-.25.06-.37,2.82-1.87,4.24-4.86,4.24-8.97s-1.17-6.92-3.52-8.91c-2.35-1.99-5.6-2.99-9.75-2.99h-11.51c-.21,0-.38.07-.53.22s-.22.32-.22.53v42.12c0,.21.07.38.22.53.15.15.32.22.53.22h12.88c3.7,0,6.71-1.04,9.04-3.12,2.33-2.08,3.49-5.05,3.49-8.91,0-4.57-1.64-8.02-4.92-10.34ZM161.33,511.66c0-.21.1-.31.31-.31h3.35c1.45,0,2.56.46,3.33,1.37.77.91,1.15,2.22,1.15,3.93s-.4,2.88-1.18,3.77c-.79.89-1.89,1.34-3.3,1.34h-3.35c-.21,0-.31-.1-.31-.31v-9.78ZM168.73,538.33c-.79,1-1.87,1.49-3.24,1.49h-3.84c-.21,0-.31-.1-.31-.31v-11.09c0-.21.1-.31.31-.31h3.91c1.33,0,2.39.54,3.18,1.62.79,1.08,1.18,2.53,1.18,4.36s-.4,3.24-1.18,4.24Z"/>
        <path class="cls-1" d="M240.58,517.2l7.29-.31c.21,0,.38-.07.53-.22.14-.15.22-.32.22-.53v-.68c0-3.7-1.13-6.65-3.4-8.85-2.26-2.2-5.27-3.3-9.03-3.3h-1.34c-3.74,0-6.74,1.1-9,3.3-2.26,2.2-3.4,5.15-3.4,8.85v20.19c0,3.74,1.13,6.72,3.4,8.94,2.26,2.22,5.26,3.33,9,3.33.01,0,.02,0,.03,0h1.31c3.72,0,6.72-1.12,9-3.33,2.28-2.22,3.43-5.2,3.43-8.94v-.62c0-.21-.07-.38-.22-.53-.15-.15-.32-.22-.53-.22l-7.29-.31c-.21,0-.38.07-.53.22-.15.15-.22.32-.22.53v1.68c0,1.2-.33,2.17-1,2.9-.66.72-1.54,1.08-2.65,1.09h-1.31s0,0,0,0c-.01,0-.02,0-.03,0-1.08,0-1.95-.36-2.62-1.09-.66-.73-1-1.69-1-2.9v-21.5c0-1.2.33-2.18,1-2.93.66-.75,1.54-1.12,2.62-1.12.01,0,.02,0,.03,0h1.31c1.11,0,1.99.38,2.65,1.12.66.75,1,1.72,1,2.93v1.62c0,.46.25.69.75.69Z"/>
      </g>
      <g>
        <path d="M7.5,544.3L.06,507.04l-.06-.22c0-.33.2-.5.61-.5h6.73c.44,0,.68.2.72.61l3.14,19.85c.04.15.09.22.17.22s.13-.07.17-.22l2.98-19.85c.04-.4.28-.61.72-.61h5.57c.44,0,.68.2.72.61l3.25,19.85c.04.15.09.22.17.22s.13-.07.17-.22l2.81-19.85c.04-.4.28-.61.72-.61h6.51c.48,0,.68.24.61.72l-7,37.27c-.04.4-.28.61-.72.61h-5.95c-.44,0-.68-.2-.72-.61l-3.25-20.4c-.04-.15-.09-.22-.17-.22s-.13.07-.17.22l-2.92,20.4c-.04.4-.28.61-.72.61h-5.9c-.4,0-.64-.2-.72-.61Z"/>
        <path d="M41.23,544.72c-.13-.13-.19-.28-.19-.47v-37.27c0-.18.06-.34.19-.47s.28-.19.47-.19h6.45c.18,0,.34.06.47.19.13.13.19.28.19.47v37.27c0,.18-.06.34-.19.47s-.28.19-.47.19h-6.45c-.18,0-.34-.06-.47-.19Z"/>
        <path d="M77.31,506.51c.13.13.19.28.19.47v5.35c0,.18-.06.34-.19.47s-.28.19-.47.19h-6.89c-.18,0-.28.09-.28.28v30.98c0,.18-.06.34-.19.47s-.29.19-.47.19h-6.45c-.18,0-.34-.06-.47-.19-.13-.13-.19-.28-.19-.47v-30.98c0-.18-.09-.28-.28-.28h-6.62c-.18,0-.34-.06-.47-.19-.13-.13-.19-.28-.19-.47v-5.35c0-.18.06-.34.19-.47s.28-.19.47-.19h21.83c.18,0,.34.06.47.19Z"/>
        <path d="M97.01,506.51c.13-.13.28-.19.47-.19h6.45c.18,0,.34.06.47.19.13.13.19.28.19.47v37.27c0,.18-.06.34-.19.47s-.29.19-.47.19h-6.45c-.18,0-.34-.06-.47-.19-.13-.13-.19-.28-.19-.47v-15.05c0-.18-.09-.28-.28-.28h-5.51c-.18,0-.28.09-.28.28v15.05c0,.18-.06.34-.19.47s-.28.19-.47.19h-6.45c-.18,0-.34-.06-.47-.19-.13-.13-.19-.28-.19-.47v-37.27c0-.18.06-.34.19-.47s.28-.19.47-.19h6.45c.18,0,.34.06.47.19.13.13.19.28.19.47v15c0,.18.09.28.28.28h5.51c.18,0,.28-.09.28-.28v-15c0-.18.06-.34.19-.47Z"/>
      </g>
      <path d="M118.98,1.01c.67-.67,1.49-1.01,2.46-1.01h26.67c.96,0,1.78.34,2.46,1.01.67.68,1.01,1.5,1.01,2.46v195.93c0,.97-.34,1.79-1.01,2.46s-1.5,1.01-2.46,1.01h-25.8c-1.93,0-3.29-.77-4.06-2.32L34.78,63.77c-.39-.58-.77-.82-1.16-.72-.39.1-.58.53-.58,1.3l.58,135.07c0,.97-.34,1.79-1.01,2.46-.68.68-1.5,1.01-2.46,1.01H3.48c-.97,0-1.79-.34-2.46-1.01-.68-.67-1.01-1.49-1.01-2.46V3.48c0-.96.34-1.78,1.01-2.46C1.69.34,2.51,0,3.48,0h25.8c1.93,0,3.28.77,4.06,2.32l83.19,136.81c.38.58.77.82,1.16.72.38-.1.58-.53.58-1.3l-.29-135.07c0-.96.34-1.78,1.01-2.46Z"/>
      <path d="M189.93,192.46c-9.18-8.5-13.77-20-13.77-34.49v-58.26c0-14.3,4.64-25.75,13.91-34.35,9.27-8.6,21.83-12.9,37.68-12.9s28.69,4.3,37.97,12.9c9.27,8.6,13.91,20.05,13.91,34.35v58.26c0,14.49-4.59,25.99-13.77,34.49-9.18,8.51-21.88,12.75-38.11,12.75s-28.65-4.25-37.82-12.75ZM240.94,170.28c3.38-3.77,5.07-8.74,5.07-14.93v-53.33c0-5.99-1.69-10.91-5.07-14.78-3.38-3.86-7.78-5.8-13.19-5.8s-9.76,1.88-13.04,5.65c-3.29,3.77-4.93,8.75-4.93,14.93v53.33c0,6.19,1.64,11.16,4.93,14.93,3.28,3.77,7.63,5.65,13.04,5.65s9.81-1.88,13.19-5.65Z"/>
      <path d="M1.01,431.72c-.68-.67-1.01-1.49-1.01-2.46v-195.94c0-.96.34-1.78,1.01-2.46.67-.67,1.49-1.01,2.46-1.01h26.67c.96,0,1.78.34,2.46,1.01.67.68,1.01,1.5,1.01,2.46v168.98c0,.97.48,1.45,1.45,1.45h53.96c.96,0,1.78.34,2.46,1.01.67.68,1.01,1.5,1.01,2.46v22.03c0,.97-.34,1.79-1.01,2.46-.68.68-1.5,1.01-2.46,1.01H3.48c-.97,0-1.79-.34-2.46-1.01Z"/>
      <path d="M119.7,258.54c-3.87-3.86-5.8-8.79-5.8-14.78s1.93-10.91,5.8-14.78,8.79-5.8,14.78-5.8,10.87,1.93,14.64,5.8c3.77,3.87,5.65,8.79,5.65,14.78s-1.93,10.92-5.8,14.78-8.7,5.8-14.49,5.8-10.92-1.93-14.78-5.8ZM118.98,431.72c-.68-.67-1.01-1.49-1.01-2.46v-141.15c0-.96.34-1.78,1.01-2.46s1.49-1.01,2.46-1.01h26.67c.96,0,1.78.34,2.46,1.01.67.68,1.01,1.5,1.01,2.46v141.15c0,.97-.34,1.79-1.01,2.46s-1.5,1.01-2.46,1.01h-26.67c-.97,0-1.79-.34-2.46-1.01Z"/>
      <path d="M277.76,369.99c-.68.68-1.5,1.01-2.46,1.01h-64.06c-.97,0-1.45.48-1.45,1.45v13.04c0,5.99,1.64,10.92,4.93,14.78,3.28,3.87,7.54,5.8,12.75,5.8,4.44,0,8.26-1.4,11.45-4.2,3.19-2.8,5.26-6.42,6.23-10.87.58-1.93,1.83-2.9,3.77-2.9l25.8,1.16c.96,0,1.78.34,2.46,1.01.67.68.91,1.59.72,2.75-1.35,13.53-6.28,23.91-14.78,31.16-8.51,7.25-20.39,10.87-35.65,10.87s-28.36-4.2-37.53-12.61c-9.18-8.41-13.77-19.85-13.77-34.35v-58.84c0-14.1,4.59-25.46,13.77-34.06,9.18-8.6,21.69-12.9,37.53-12.9s28.36,4.3,37.54,12.9c9.18,8.6,13.77,19.95,13.77,34.06v38.26c0,.97-.34,1.79-1.01,2.46ZM214.71,317.09c-3.29,3.87-4.93,8.8-4.93,14.78v13.04c0,.97.48,1.45,1.45,1.45h32.75c.96,0,1.45-.48,1.45-1.45v-13.04c0-6.18-1.64-11.16-4.93-14.93-3.29-3.77-7.64-5.65-13.04-5.65s-9.47,1.93-12.75,5.8Z"/>
    </g>
  </g>
</svg>